<svg width="60" height="60" viewBox="0 0 60 60" fill="none" xmlns="http://www.w3.org/2000/svg">
<g id="Group 27">
<g id="Rectangle 4">
<rect width="60" height="60" rx="4" fill="#FF777F"/>
<rect width="60" height="60" rx="4" fill="url(#paint0_linear_356_757)"/>
</g>
<g id="Group 16">
<path id="Vector 25" d="M16.2115 26.9761C16.2115 26.9761 11.6015 42.1663 20.4179 44.3363C29.2342 46.5063 37.1944 35.5023 33.2051 30.2311C31.5659 28.0651 28.7873 28.0651 27.148 30.2311" stroke="white" stroke-width="4.03199"/>
<ellipse id="Ellipse 9" cx="24.0875" cy="18.4078" rx="3.024" ry="3.02399" fill="white"/>
<ellipse id="Ellipse 10" cx="36.6871" cy="18.4078" rx="3.024" ry="3.02399" fill="white"/>
<g id="Ellipse 8" opacity="0.3" filter="url(#filter0_f_356_757)">
<ellipse cx="30.4714" cy="40.7517" rx="3.864" ry="3.86398" fill="#FE5A65"/>
</g>
<path id="Vector 26" d="M33.2029 30.2311C31.5645 28.0651 28.7873 28.0651 27.1489 30.2311C23.1617 35.5023 31.2864 46.5063 39.9296 44.3363C48.5729 42.1663 43.9657 26.9761 43.9657 26.9761" stroke="white" stroke-width="4.03199"/>
</g>
</g>
<defs>
<filter id="filter0_f_356_757" x="21.5674" y="31.8477" width="17.8075" height="17.808" filterUnits="userSpaceOnUse" color-interpolation-filters="sRGB">
<feFlood flood-opacity="0" result="BackgroundImageFix"/>
<feBlend mode="normal" in="SourceGraphic" in2="BackgroundImageFix" result="shape"/>
<feGaussianBlur stdDeviation="2.51999" result="effect1_foregroundBlur_356_757"/>
</filter>
<linearGradient id="paint0_linear_356_757" x1="30" y1="0" x2="30" y2="60" gradientUnits="userSpaceOnUse">
<stop stop-color="#FF8C91"/>
<stop offset="1" stop-color="#FE5A65"/>
</linearGradient>
</defs>
</svg>
